<svg xmlns="http://www.w3.org/2000/svg" width="240" height="80" viewBox="0 0 240 80" role="img" aria-label="bKash logo">
  <rect width="240" height="80" rx="14" fill="#e2136e"/>
  <g fill="#ffffff">
    <path d="M38 25c6 0 11 4 11 10 0 4-2 7-6 9 5 2 8 6 8 11 0 8-7 13-16 13H20V25h18zm-5 17c3 0 5-2 5-5s-2-4-5-4h-3v9h3zm1 18c4 0 7-2 7-6s-3-6-7-6h-4v12h4z"/>
    <path d="M70 25h10v24l11-12h13L92 50l14 18H93L84 55l-4 4v9H70V25z"/>
    <path d="M126 36c11 0 18 7 18 17v15h-10v-3c-2 2-6 4-10 4-8 0-14-5-14-12 0-8 7-12 16-12h8c-1-3-4-4-8-4-4 0-8 1-11 3l-4-7c4-3 10-4 15-4zm-1 26c4 0 8-2 9-6v-2h-7c-5 0-7 2-7 4 0 3 2 4 5 4z"/>
    <path d="M170 69c-8 0-15-2-19-5l4-8c4 3 10 5 16 5 5 0 7-1 7-3 0-5-26 1-26-13 0-7 7-12 18-12 5 0 11 1 15 4l-4 8c-4-2-8-3-11-3-5 0-7 1-7 3 0 5 26 0 26 13 0 7-7 11-19 11z"/>
    <path d="M193 25h10v16c2-3 6-5 11-5 9 0 15 5 15 16v16h-10V53c0-5-2-8-7-8-5 0-9 3-9 10v13h-10V25z"/>
  </g>
</svg>
