<?xml version="1.0" encoding="UTF-8" standalone="no"?>
<!-- Created with Inkscape (http://www.inkscape.org/) -->

<svg
   width="92.654404mm"
   height="43.507317mm"
   viewBox="0 0 92.654404 43.507316"
   version="1.1"
   id="svg1"
   xmlns:inkscape="http://www.inkscape.org/namespaces/inkscape"
   xmlns:sodipodi="http://sodipodi.sourceforge.net/DTD/sodipodi-0.dtd"
   xmlns="http://www.w3.org/2000/svg"
   xmlns:svg="http://www.w3.org/2000/svg">
  <sodipodi:namedview
     id="namedview1"
     pagecolor="#ffffff"
     bordercolor="#000000"
     borderopacity="0.25"
     inkscape:showpageshadow="2"
     inkscape:pageopacity="0.0"
     inkscape:pagecheckerboard="0"
     inkscape:deskcolor="#d1d1d1"
     inkscape:document-units="mm">
    <inkscape:page
       x="0"
       y="0"
       width="92.654404"
       height="43.507317"
       id="page2"
       margin="0"
       bleed="0" />
  </sodipodi:namedview>
  <defs
     id="defs1">
    <clipPath
       clipPathUnits="userSpaceOnUse"
       id="clipPath73">
      <path
         d="M -2.254e-6,548.52 H 612 v 132 H -2.254e-6 Z"
         transform="matrix(1.3333333,0,0,-1.3333333,0,1056)"
         clip-rule="evenodd"
         id="path73" />
    </clipPath>
    <clipPath
       clipPathUnits="userSpaceOnUse"
       id="clipPath59">
      <path
         d="M 0,0 H 256.88 V 111.12 H 0 Z"
         id="path59" />
    </clipPath>
    <clipPath
       clipPathUnits="userSpaceOnUse"
       id="clipPath60">
      <path
         d="M 0,0 H 256.88 V 111.12 H 0 Z"
         id="path60" />
    </clipPath>
    <clipPath
       clipPathUnits="userSpaceOnUse"
       id="clipPath61">
      <path
         d="M 0,0 H 256.88 V 111.12 H 0 Z"
         id="path61" />
    </clipPath>
    <clipPath
       clipPathUnits="userSpaceOnUse"
       id="clipPath62">
      <path
         d="M 0,0 H 256.88 V 111.12 H 0 Z"
         id="path62" />
    </clipPath>
    <clipPath
       clipPathUnits="userSpaceOnUse"
       id="clipPath63">
      <path
         d="M 0,0 H 256.88 V 111.12 H 0 Z"
         id="path63" />
    </clipPath>
    <clipPath
       clipPathUnits="userSpaceOnUse"
       id="clipPath64">
      <path
         d="M 0,0 H 256.88 V 111.12 H 0 Z"
         id="path64" />
    </clipPath>
    <clipPath
       clipPathUnits="userSpaceOnUse"
       id="clipPath65">
      <path
         d="M 0,0 H 256.88 V 111.12 H 0 Z"
         id="path65" />
    </clipPath>
  </defs>
  <g
     inkscape:label="Layer 1"
     inkscape:groupmode="layer"
     id="layer1"
     transform="translate(-58.476112,-126.78523)">
    <g
       id="g58"
       transform="matrix(0.26458333,0,0,0.26458333,-12.53948,83.977756)">
      <g
         id="g72"
         clip-path="url(#clipPath73)">
        <path
           d="m 17.482,72.31 c 0,-0.296 0,-0.296 0,-0.296 4.149,0.592 8.297,0.889 12.445,1.481 2.074,0 4.444,0.593 6.222,0.593 2.074,0 4.445,0.592 6.222,0.592 6.223,0.593 6.223,0.593 6.223,0.593 0.592,0 0.888,0 1.481,0 0.593,0 0.889,0 1.481,0.296 0.593,0 0.889,-0.296 1.482,0 10.37,0.296 10.37,0.296 10.37,0.296 11.556,0.593 26.371,-0.592 37.632,-2.962 5.03,-1.186 5.03,-1.186 5.03,-1.186 1.78,-0.296 1.49,-0.592 3.56,-0.296 1.78,0.296 3.56,1.778 4.44,3.259 1.49,2.371 0.89,6.223 -1.18,8.297 -0.89,0.888 -0.89,0.888 -0.89,0.888 -1.78,1.186 -2.37,1.186 -4.44,1.186 -0.89,0.296 -2.08,0.296 -3.26,0.296 -3.56,0.296 -8.003,0.593 -11.558,0.296 -0.593,0 -1.186,0 -1.778,0 -2.371,0 -4.741,-0.296 -7.111,-0.296 -0.593,0 -1.185,0 -1.778,0 -0.593,0 -1.185,0 -1.778,-0.296 -0.889,0 -0.889,0 -1.778,0 -9.481,-1.186 -9.481,-1.186 -9.481,-1.186 -0.889,0 -1.185,0 -1.778,-0.296 -1.185,0 -2.37,-0.296 -3.555,-0.296 C 63.112,82.977 62.816,82.977 61.927,82.977 56.89,81.791 56.89,81.791 56.89,81.791 55.705,81.495 54.519,81.495 53.334,81.199 52.445,80.903 51.26,80.606 50.075,80.31 47.705,79.717 45.631,79.421 43.556,78.828 20.742,72.903 20.742,72.903 20.742,72.903 19.853,72.606 18.668,72.31 17.482,72.31 Z"
           style="fill:#008837;fill-opacity:1;fill-rule:evenodd;stroke:none"
           transform="matrix(1.32337,0,0,-1.439851,274,324.6)"
           clip-path="url(#clipPath59)"
           id="path66" />
        <path
           d="m 8.8898,45.94 c 0,-0.297 0,-0.297 0,-0.297 4.1482,0.593 8.0002,0.889 12.4442,1.482 1.778,0 4.445,0.592 6.222,0.592 1.778,0 4.149,0.593 6.223,0.593 5.926,0.593 5.926,0.593 5.926,0.593 0.889,0 1.185,0 1.481,0 0.593,0 1.185,0.296 1.778,0.296 0.592,0 0.592,0 1.481,0 10.371,0.296 10.371,0.296 10.371,0.296 11.555,0.593 26.074,-0.592 37.629,-2.963 5.037,-1.185 5.037,-1.185 5.037,-1.185 1.778,-0.296 1.482,-0.593 3.258,-0.296 2.08,0.296 3.56,1.777 4.45,3.259 1.48,2.37 1.18,6.222 -0.89,8.296 -1.19,0.889 -1.19,0.889 -1.19,0.889 -1.48,1.185 -2.07,1.185 -4.146,1.185 -1.185,0.297 -2.371,0.297 -3.259,0.297 -3.556,0.296 -8,0.592 -11.556,0.296 -0.593,0 -1.185,0 -1.778,0 -2.37,0 -4.74,0 -7.111,-0.296 -0.592,0 -1.185,0 -1.778,0 -0.592,0 -1.185,0 -2.074,-0.297 -0.592,0 -0.889,0 -1.481,0 -9.778,-1.185 -9.778,-1.185 -9.778,-1.185 -0.593,0 -0.889,0 -1.481,-0.296 -1.482,0 -2.371,-0.296 -3.852,-0.296 C 54.223,56.606 53.927,56.606 53.334,56.606 48.001,55.421 48.001,55.421 48.001,55.421 46.816,55.125 45.927,55.125 44.742,54.828 43.556,54.532 42.371,54.236 41.186,53.94 39.112,53.347 36.742,53.051 34.668,52.458 12.149,46.532 12.149,46.532 12.149,46.532 11.26,46.236 9.7787,45.94 8.8898,45.94 Z"
           style="fill:#ff0800;fill-opacity:1;fill-rule:evenodd;stroke:none"
           transform="matrix(1.32337,0,0,-1.439851,274,324.6)"
           clip-path="url(#clipPath60)"
           id="path67" />
        <path
           d="m 0.2972,19.569 c 0,-0.296 0,-0.296 0,-0.296 4.4444,0.592 8.2963,0.889 12.4448,1.481 2.074,0.297 4.444,0.593 6.518,0.593 1.778,0 4.148,0.593 5.926,0.593 6.222,0.592 6.222,0.592 6.222,0.592 0.593,0 0.889,0 1.482,0 0.592,0 1.185,0.296 1.481,0.296 0.593,0 0.889,0 1.482,0 10.37,0.297 10.37,0.297 10.37,0.297 11.556,0.592 26.37,-0.593 37.926,-2.963 4.741,-1.185 4.741,-1.185 4.741,-1.185 2.074,-0.297 1.481,-0.593 3.555,-0.297 1.778,0.297 3.556,1.778 4.445,3.26 1.481,2.666 1.185,6.222 -1.185,8.296 -0.889,0.889 -0.889,0.889 -0.889,0.889 -1.778,1.185 -2.074,1.185 -4.445,1.481 -0.889,0 -2.074,0 -3.259,0 -3.259,0.297 -8,0.593 -11.556,0.297 -0.592,0 -1.185,0 -1.777,0 -2.371,0.296 -4.741,0 -6.815,0 -0.593,0 -1.185,-0.297 -1.778,-0.297 -0.889,0 -1.481,0 -2.074,0 -0.593,-0.296 -0.889,0 -1.778,-0.296 -9.481,-0.889 -9.481,-0.889 -9.481,-0.889 -0.889,-0.296 -1.185,-0.296 -1.778,-0.593 -1.185,0 -2.37,-0.296 -3.556,-0.296 C 45.927,30.236 45.631,30.236 44.742,30.236 39.705,29.051 39.705,29.051 39.705,29.051 38.519,28.754 37.334,28.754 36.149,28.458 35.26,28.162 34.075,27.865 32.89,27.569 30.519,27.273 28.445,26.68 26.371,26.088 3.8528,20.162 3.8528,20.162 3.8528,20.162 c -1.1852,0 -2.3704,-0.593 -3.5556,-0.593 z"
           style="fill:#cba349;fill-opacity:1;fill-rule:evenodd;stroke:none"
           transform="matrix(1.32337,0,0,-1.439851,274,324.6)"
           clip-path="url(#clipPath61)"
           id="path68" />
        <path
           d="m 152.89,11.865 c 0,0 17.48,48.297 21.63,62.519 5.93,19.556 22.81,-2.667 21.33,-18.667 -1.78,-18.074 -25.48,-22.814 -40.59,-13.629 -4.15,2.666 26.37,-1.185 29.33,6.518 2.67,7.408 -3.85,18.667 -6.52,13.926 -2.66,-4.444 -11.85,-55.9998 -25.18,-50.667 z"
           style="fill:#6a51a3;fill-opacity:1;fill-rule:nonzero;stroke:none"
           transform="matrix(1.32337,0,0,-1.439851,274,324.6)"
           clip-path="url(#clipPath62)"
           id="path69" />
        <path
           d="m 244.15,89.791 c 0,0 -42.96,4.741 -28.45,-42.666 10.97,-36.148 -21.63,-61.037 -53.63,-36.445 -5.03,14.223 56,-34.074 38.82,36.148 -13.33,53.037 41.48,44.741 43.26,42.963 z"
           style="fill:#13007c;fill-opacity:1;fill-rule:nonzero;stroke:none"
           transform="matrix(1.32337,0,0,-1.439851,274,324.6)"
           clip-path="url(#clipPath63)"
           id="path70" />
        <path
           d="m 232.3,82.977 c 0,0 41.48,-14.223 8,-29.037 0,0 45.03,-20.149 -18.08,-37.63 3.56,5.926 3.56,5.926 3.56,5.926 0,0 49.48,11.852 0,26.667 -0.3,1.777 0,4.148 2.37,7.703 2.67,4.148 22.22,5.63 8.59,21.926 -0.59,0.889 -3.85,3.259 -4.44,4.445 z"
           style="fill:#666666;fill-opacity:1;fill-rule:nonzero;stroke:none"
           transform="matrix(1.32337,0,0,-1.439851,274,324.6)"
           clip-path="url(#clipPath64)"
           id="path71" />
        <path
           d="m 138.67,72.903 c -0.89,2.37 -3.56,11.259 -5.34,12.74 -1.18,1.185 -3.26,1.482 -4.44,-0.296 -0.59,-1.778 -1.19,-4.741 -1.78,-6.815 -0.89,-2.963 -1.48,-5.926 -2.66,-8.889 -0.3,-1.481 -0.89,-2.666 -1.19,-4.148 -0.59,-1.481 -1.19,-2.963 -1.48,-4.148 -1.19,-3.259 -2.96,-8.593 -4.15,-11.852 -0.3,-0.296 -0.3,-0.592 -0.3,-0.889 -1.77,-4.148 -1.77,-4.148 -1.77,-4.148 -0.3,-1.481 -0.89,-2.963 -1.49,-4.444 -1.48,-4.445 -10.66,-30.5189 -4.74,-29.926 2.08,0.296 13.34,26.074 15.41,30.518 0.89,1.778 1.78,3.259 2.67,5.037 0.89,1.482 1.48,3.26 2.37,5.037 0.89,1.482 1.78,3.26 2.37,4.741 1.18,2.37 4.44,4.741 6.22,0.889 0.3,-0.889 0.59,-2.074 0.89,-2.963 3.26,-9.482 3.26,-14.815 4.15,-24 0.29,-3.852 0.29,-3.852 0.29,-3.852 -0.29,-1.185 0,-2.37 0,-3.555 0,-0.593 0,-0.297 0,-0.889 0,-0.297 0,-0.593 0,-0.889 0,-4.148 0,-4.148 0,-4.148 0,-2.371 1.19,-2.667 2.67,-0.889 2.08,2.666 7.11,24.592 8.89,30.518 0.3,1.185 0.59,2.074 0.89,3.26 0.59,2.074 1.18,4.444 1.78,6.518 16.59,56.589 37.63,55.699 93.92,37.63 0.6,0 2.37,-0.889 2.97,-0.889 0.59,0.296 0.88,0.592 0.88,1.185 0,0 0,0 0,0 -0.29,0.593 -0.88,0.889 -1.18,1.185 -53.04,30.518 -90.37,19.848 -103.41,-38.518 -4.15,-18.667 -6.52,0.296 -12.44,16.889 z"
           style="fill:#3d354c;fill-opacity:1;fill-rule:evenodd;stroke:none"
           transform="matrix(1.32337,0,0,-1.439851,274,324.6)"
           clip-path="url(#clipPath65)"
           id="path72" />
      </g>
    </g>
  </g>
</svg>
